<?xml version="1.0" encoding="UTF-8"?>
<svg width="28px" height="16px" viewBox="0 0 28 16" version="1.1" xmlns="http://www.w3.org/2000/svg" xmlns:xlink="http://www.w3.org/1999/xlink">
    <!-- Generator: Sketch 46.2 (44496) - http://www.bohemiancoding.com/sketch -->
    <title>Group 14</title>
    <desc>Created with Sketch.</desc>
    <defs></defs>
    <g id="Page-1" stroke="none" stroke-width="1" fill="none" fill-rule="evenodd">
        <g id="server_snapshots" transform="translate(-937.000000, -394.000000)">
            <g id="Group-14" transform="translate(937.000000, 394.000000)">
                <path d="M23.0789474,15.5 L23.0789474,16 L23.5789474,16 L23.5789474,15.5 L23.0789474,15.5 Z M4.0663819,15.5 L3.92982456,15.5 L3.92982456,16 L4.42982456,16 L4.42982456,15.5204978 L4.0663819,15.5 Z M23.0789474,15.5 L4.0663819,15.5 L3.95797935,15.4938862 C2.0188158,15.3845192 0.5,13.8249481 0.5,11.9402985 C0.5,9.97752398 2.14245339,8.38059701 4.1754386,8.38059701 C4.62662584,8.38059701 5.06585191,8.45915181 5.47803309,8.61050132 L6.16328544,8.8621203 L6.1502985,8.13224756 C6.14931932,8.06622016 6.14931932,8.06622016 6.14912281,8 C6.14912281,3.8610587 9.60600116,0.5 13.877193,0.5 C18.1483848,0.5 21.6052632,3.8610587 21.6052632,8 C21.6052632,8.07548736 21.6041156,8.15083537 21.6018251,8.22602897 L21.577676,9.01877824 L22.3033542,8.6987381 C22.7765466,8.49004978 23.2920799,8.38059701 23.8245614,8.38059701 C25.8575466,8.38059701 27.5,9.97752398 27.5,11.9402985 C27.5,13.903073 25.8575466,15.5 23.8245614,15.5 C23.7517761,15.5 23.6792712,15.4979565 23.6071022,15.4938862 L23.0789474,15.4640988 L23.0789474,15.5 Z" id="Combined-Shape" stroke="#69717B"></path>
                <path d="M15.6876525,11.3904344 C15.9032834,11.5629392 16.2179296,11.5279785 16.3904344,11.3123475 C16.5629392,11.0967166 16.5279785,10.7820704 16.3123475,10.6095656 L13.8123475,8.6095656 C13.6297382,8.46347813 13.3702618,8.46347813 13.1876525,8.6095656 L10.6876525,10.6095656 C10.4720215,10.7820704 10.4370608,11.0967166 10.6095656,11.3123475 C10.7820704,11.5279785 11.0967166,11.5629392 11.3123475,11.3904344 L13.5,9.64031242 L15.6876525,11.3904344 Z" id="Path-25" fill="#676F79" fill-rule="nonzero"></path>
                <polygon id="Path-7" fill="#676F79" fill-rule="nonzero" points="13.0555556 9.22537679 13.0555556 15.8184549 14.0555556 15.8184549 14.0555556 9.22537679"></polygon>
            </g>
        </g>
    </g>
</svg>
