<?xml version="1.0" encoding="UTF-8"?>
<svg width="19px" height="19px" viewBox="0 0 19 19" version="1.1" xmlns="http://www.w3.org/2000/svg" xmlns:xlink="http://www.w3.org/1999/xlink">
    <title>_02</title>
    <desc>Created with Sketch.</desc>
    <defs></defs>
    <g id="Page-1" stroke="none" stroke-width="1" fill="none" fill-rule="evenodd">
        <g id="server_ISO" transform="translate(-1035.000000, -390.000000)" fill="#676F79">
            <path d="M1045.19595,391.188606 C1045.37668,391.793756 1045.51203,392.411541 1045.60086,393.036824 C1045.62283,393.186438 1045.64361,393.469638 1045.6638,393.630533 C1046.27773,393.753708 1046.86919,393.970149 1047.41761,394.272333 C1047.53636,394.161309 1047.6551,394.050879 1047.76909,393.950543 C1048.19435,393.540252 1048.66853,393.183915 1049.18093,392.889584 L1050.32857,393.859111 C1050.13002,394.417493 1049.86384,394.949458 1049.53597,395.443128 C1049.45641,395.573744 1049.36854,395.711485 1049.28008,395.850413 C1049.67013,396.341781 1049.98378,396.889213 1050.21042,397.474208 C1050.37488,397.465896 1050.53756,397.458771 1050.68955,397.454616 C1050.85341,397.449866 1051.00936,397.447491 1051.15739,397.447491 C1051.59056,397.433588 1052.02388,397.469848 1052.44871,397.555546 L1052.70875,399.03982 C1052.13167,399.372729 1051.51515,399.632022 1050.8736,399.811642 C1050.79701,399.836578 1050.7127,399.861514 1050.63255,399.886449 C1050.61734,400.560187 1050.49324,401.227027 1050.26504,401.861127 C1050.27395,401.868845 1050.28226,401.875376 1050.29176,401.8825 C1050.80651,402.298097 1051.34975,402.741598 1051.97196,403.243876 L1051.22329,404.550037 C1050.47937,404.258526 1049.82511,404.007386 1049.21121,403.765747 L1049.18331,403.753873 C1048.72248,404.303857 1048.16988,404.769879 1047.55001,405.131278 C1047.55001,405.141965 1047.55476,405.152058 1047.55654,405.163339 C1047.68716,405.816419 1047.81896,406.506903 1047.97214,407.294756 L1046.56445,407.810689 C1046.18092,407.10655 1045.84013,406.490873 1045.52427,405.910819 L1045.50824,405.88054 C1044.80505,406.011954 1044.08359,406.011954 1043.38039,405.88054 C1043.37445,405.890633 1043.3697,405.900726 1043.36436,405.910819 C1043.04851,406.493842 1042.70772,407.109518 1042.32418,407.810689 L1040.9165,407.294756 C1041.07205,406.506903 1041.20444,405.814044 1041.33209,405.163339 C1041.33209,405.152058 1041.33684,405.141965 1041.33922,405.131278 C1040.71928,404.769729 1040.16651,404.303733 1039.70533,403.753873 L1039.67742,403.765747 C1039.06353,404.007386 1038.40926,404.258526 1037.66594,404.550037 L1036.91727,403.243876 C1037.53948,402.741598 1038.08213,402.293941 1038.59747,401.8825 C1038.60697,401.875376 1038.61528,401.868845 1038.62418,401.861127 C1038.39575,401.227093 1038.27164,400.560213 1038.25668,399.886449 C1038.17653,399.861514 1038.09222,399.836578 1038.01563,399.811642 C1037.37404,399.632141 1036.7575,399.372841 1036.18048,399.03982 L1036.44052,397.555546 C1036.86551,397.469553 1037.29906,397.433291 1037.73243,397.447491 C1037.88027,397.447491 1038.03641,397.447491 1038.19968,397.454022 C1038.35167,397.458178 1038.51435,397.465896 1038.6788,397.473614 C1038.90539,396.888411 1039.21904,396.340776 1039.60915,395.849225 C1039.52009,395.710297 1039.43103,395.571369 1039.35326,395.441347 C1039.02525,394.946908 1038.75907,394.414141 1038.56066,393.854955 L1039.7083,392.881866 C1040.22082,393.172962 1040.69508,393.526766 1041.12014,393.935106 C1041.23294,394.036037 1041.35168,394.13103 1041.47161,394.242054 C1042.01846,393.92977 1042.60993,393.703114 1043.22543,393.569975 C1043.24562,393.407298 1043.2664,393.185251 1043.28836,393.035636 C1043.37732,392.410427 1043.51246,391.792665 1043.69268,391.187419 L1045.19061,391.187419 L1045.19595,391.188606 Z M1045.19061,390 L1043.69268,390 C1043.16867,390.001241 1042.70814,390.34766 1042.56166,390.850786 C1042.38709,391.434831 1042.25162,392.029858 1042.15616,392.631914 C1041.99052,392.691285 1041.82428,392.754812 1041.65626,392.827244 C1041.21961,392.426604 1040.73382,392.083064 1040.21058,391.804877 C1039.79381,391.606856 1039.29963,391.671941 1038.94835,391.971115 L1037.80071,392.944205 C1037.449,393.243077 1037.30164,393.718249 1037.42252,394.163684 C1037.60966,394.741006 1037.86899,395.292375 1038.19434,395.804697 C1038.10291,395.952729 1038.01642,396.103927 1037.93489,396.258291 C1037.86542,396.258291 1037.79774,396.258291 1037.73184,396.258291 C1037.19683,396.241801 1036.66183,396.291253 1036.13892,396.405531 C1035.69321,396.525581 1035.35747,396.893046 1035.27804,397.347748 L1035.01799,398.832021 C1034.93804,399.287408 1035.12873,399.747941 1035.50721,400.013503 C1036.01615,400.339438 1036.56754,400.593756 1037.14585,400.769295 C1037.17672,400.992134 1037.21769,401.212796 1037.26874,401.431281 L1036.95883,401.683014 L1036.1781,402.315908 C1035.72369,402.684501 1035.60373,403.328288 1035.8949,403.835804 L1036.64416,405.141965 C1036.93261,405.649032 1037.54955,405.867489 1038.09281,405.65493 L1039.03087,405.289205 L1039.3966,405.147309 C1039.59674,405.33601 1039.80724,405.513409 1040.02712,405.678678 C1040.00218,405.807513 1039.97606,405.938723 1039.95053,406.072308 L1039.75698,407.061428 C1039.64222,407.634717 1039.96186,408.206233 1040.5104,408.408554 L1041.91749,408.924488 C1042.04658,408.972002 1042.18306,408.996322 1042.32062,408.996327 C1042.75231,408.995605 1043.14916,408.759267 1043.35545,408.380056 L1043.83992,407.494836 L1044.02931,407.148703 C1044.16824,407.157807 1044.30559,407.16216 1044.44135,407.161765 C1044.57711,407.161369 1044.71445,407.157015 1044.85338,407.148703 L1045.0499,407.498398 L1045.53437,408.383619 C1045.81193,408.897067 1046.42432,409.128925 1046.97233,408.92805 L1048.37942,408.412117 C1048.92796,408.209796 1049.2476,407.63828 1049.13284,407.06499 L1048.93929,406.07587 C1048.91317,405.942483 1048.88764,405.811274 1048.8627,405.682241 C1049.08247,405.516822 1049.29296,405.33943 1049.49322,405.150871 L1049.85895,405.292767 L1050.79641,405.658492 C1051.33985,405.871122 1051.95699,405.652683 1052.24566,405.145527 L1052.99492,403.839367 C1053.28583,403.331806 1053.16591,402.688198 1052.71172,402.319471 L1051.93099,401.686576 L1051.62108,401.434844 C1051.67214,401.216358 1051.7131,400.994905 1051.74397,400.772858 C1052.32228,400.597319 1052.87367,400.343 1053.38261,400.017065 C1053.76109,399.751504 1053.95179,399.290971 1053.87183,398.835584 L1053.61119,397.35131 C1053.53268,396.89636 1053.19686,396.528553 1052.75091,396.409093 C1052.22819,396.29481 1051.69339,396.245357 1051.15858,396.261853 L1050.95434,396.261853 C1050.8736,396.108083 1050.78691,395.95728 1050.69548,395.81004 C1051.02177,395.299079 1051.28116,394.748372 1051.46731,394.171402 C1051.58806,393.725078 1051.43999,393.249171 1051.08733,392.950142 L1049.93969,391.980615 C1049.58834,391.682923 1049.09522,391.618582 1048.67925,391.816157 C1048.14759,392.100716 1047.65489,392.452727 1047.21338,392.863461 C1047.05783,392.799934 1046.90109,392.744719 1046.74197,392.690097 C1046.64604,392.067749 1046.50718,391.452782 1046.32638,390.849598 C1046.17909,390.347623 1045.71909,390.002382 1045.19595,390.001187 L1045.19595,390.001187 L1045.19061,390 Z M1044.44729,397.124513 C1045.40915,397.118501 1046.27964,397.693285 1046.6519,398.580208 C1047.02416,399.467131 1046.82466,400.491016 1046.14665,401.173296 C1045.46863,401.855576 1044.44602,402.061492 1043.55678,401.694799 C1042.66754,401.328106 1042.08731,400.46123 1042.08729,399.499351 C1042.08499,398.1926 1043.14055,397.130402 1044.44729,397.124513 L1044.44729,397.124513 Z M1044.44729,395.937094 C1043.00452,395.928197 1041.69887,396.790449 1041.14057,398.120844 C1040.58227,399.451239 1040.8816,400.987018 1041.89864,402.010376 C1042.91569,403.033734 1044.44959,403.342554 1045.78341,402.792496 C1047.11724,402.242438 1047.98755,400.942142 1047.98757,399.499351 C1047.99349,397.5381 1046.40853,395.943315 1044.44729,395.937094 L1044.44729,395.937094 L1044.44729,395.937094 Z" id="_02"></path>
        </g>
    </g>
</svg>