<?xml version="1.0" encoding="UTF-8"?>
<svg width="53px" height="50px" viewBox="0 0 53 50" version="1.1" xmlns="http://www.w3.org/2000/svg" xmlns:xlink="http://www.w3.org/1999/xlink">
    <title>Group 4</title>
    <desc>Created with Sketch.</desc>
    <defs></defs>
    <g id="Page-1" stroke="none" stroke-width="1" fill="none" fill-rule="evenodd">
        <g id="Support" transform="translate(-599.000000, -318.000000)" stroke="#2980B9" stroke-width="2">
            <g id="Group-4" transform="translate(600.000000, 319.000000)">
                <path d="M15.3364374,7.54921413 C10.8239,9.9744304 7.27732929,13.9643282 5.42260138,18.7930314 M16.2490718,45.9135405 C19.0510894,47.2511523 22.1880933,48 25.5,48 C28.6852958,48 31.7088059,47.3073133 34.4281134,46.0643569 M45.8833008,18.7930314 C44.2857068,13.6087188 40.9468506,10.6278846 36.3532272,7.93641461" id="Oval-8" stroke-linecap="round"></path>
                <g id="Group-25" transform="translate(19.000000, 0.000000)">
                    <circle id="Oval-9" cx="7" cy="5" r="5"></circle>
                    <path d="M13,20 C13,16.1340068 10.0898509,13 6.5,13 C2.91014913,13 0,16.1340068 0,20 L13,20 Z" id="Oval-9-Copy-3" stroke-linecap="round" stroke-linejoin="round"></path>
                </g>
                <g id="Group-25" transform="translate(0.000000, 23.000000)">
                    <circle id="Oval-9" cx="7" cy="5" r="5"></circle>
                    <path d="M13,20 C13,16.1340068 10.0898509,13 6.5,13 C2.91014913,13 0,16.1340068 0,20 L13,20 Z" id="Oval-9-Copy-3" stroke-linecap="round" stroke-linejoin="round"></path>
                </g>
                <g id="Group-25" transform="translate(38.000000, 23.000000)">
                    <circle id="Oval-9" cx="7" cy="5" r="5"></circle>
                    <path d="M13,20 C13,16.1340068 10.0898509,13 6.5,13 C2.91014913,13 0,16.1340068 0,20 L13,20 Z" id="Oval-9-Copy-3" stroke-linecap="round" stroke-linejoin="round"></path>
                </g>
            </g>
        </g>
    </g>
</svg>