<?xml version="1.0" encoding="UTF-8"?>
<svg width="328px" height="328px" viewBox="0 0 328 328" version="1.1" xmlns="http://www.w3.org/2000/svg" xmlns:xlink="http://www.w3.org/1999/xlink">
    <!-- Generator: Sketch 45.2 (43514) - http://www.bohemiancoding.com/sketch -->
    <title>Group 12</title>
    <desc>Created with Sketch.</desc>
    <defs>
        <circle id="path-1" cx="164" cy="164" r="164"></circle>
    </defs>
    <g id="Page-1" stroke="none" stroke-width="1" fill="none" fill-rule="evenodd">
        <g id="Group-12">
            <g id="Oval-2-Copy-8">
                <use fill="#2980B9" fill-rule="evenodd" xlink:href="#path-1"></use>
                <circle cx="164" cy="164" r="164"></circle>
            </g>
            <g id="Group-4-Copy-4" transform="translate(104.076923, 58.871795)" fill="#FFFFFF">
                <path d="M59.6961845,89.6961173 C59.8456706,89.6955545 59.9951584,89.6955479 60.1446445,89.6960975 C76.5869208,89.574596 89.8782952,76.2380782 89.8782952,59.8041836 C89.8782952,43.2948733 76.4646515,29.9114329 59.9180836,29.9114329 C43.3715156,29.9114329 29.9578719,43.2948733 29.9578719,59.8041836 C29.9578715,67.7339608 33.1157556,75.3388093 38.7365453,80.9450741 C44.3026475,86.4967926 51.8322502,89.6380833 59.6961832,89.6961174 Z M58.7964247,89.7062227 C44.6077554,89.9568265 30.9580806,95.2456283 20.3106838,104.64331 C1.60857206,88.2024061 -4.93942965,61.9268429 3.86764927,38.6613491 C12.6747282,15.3958553 34.9973133,0 59.9230769,0 C84.8488406,0 107.171426,15.3958553 115.978505,38.6613491 C124.785583,61.9268429 118.237582,88.2024061 99.5354701,104.64331 C88.8880733,95.2456283 75.2383984,89.9568265 61.0497291,89.7062227 C74.8206698,89.9637225 88.5203492,94.9427515 99.5354701,104.64331 L99.5354701,104.64331 C76.9044927,124.573469 42.9416611,124.573469 20.3106838,104.64331 C31.3258046,94.9427515 45.0254841,89.9637225 58.7964247,89.7062227 Z" id="Combined-Shape-Copy-11" fill-rule="nonzero"></path>
                <g id="Group-3-Copy-9" transform="translate(0.000000, 140.768490)">
                    <path d="M89.8846154,14.9488662 C89.8846151,31.4609276 76.4703775,44.846598 59.9230769,44.846598 C43.3757763,44.846598 29.9615387,31.4609276 29.9615385,14.9488662 L0,14.9488662 C1.06444768e-14,47.9729894 26.8284754,74.7443308 59.9230769,74.7443308 C93.0176785,74.7443308 119.846154,47.9729894 119.846154,14.9488662 L89.8846154,14.9488662 Z" id="Shape" fill-rule="nonzero"></path>
                    <ellipse id="Oval-2-Copy-4" cx="14.9807692" cy="14.9488662" rx="14.9807692" ry="14.9488662"></ellipse>
                    <ellipse id="Oval-2-Copy-5" cx="104.865385" cy="15.9454572" rx="14.9807692" ry="14.9488662"></ellipse>
                </g>
            </g>
        </g>
    </g>
</svg>