<?xml version="1.0" encoding="UTF-8"?>
<svg width="31px" height="17px" viewBox="0 0 31 17" version="1.1" xmlns="http://www.w3.org/2000/svg" xmlns:xlink="http://www.w3.org/1999/xlink">
    <!-- Generator: Sketch 46.2 (44496) - http://www.bohemiancoding.com/sketch -->
    <title>Group 13</title>
    <desc>Created with Sketch.</desc>
    <defs></defs>
    <g id="Page-1" stroke="none" stroke-width="1" fill="none" fill-rule="evenodd">
        <g id="server_snapshots" transform="translate(-991.000000, -393.000000)" fill="#676F79">
            <g id="Group-13" transform="translate(992.500000, 392.000000)">
                <g id="Group-9">
                    <path d="M2.49986358,12.0001364 C1.11922705,12.0001364 -2.22044605e-16,13.1193635 0,14.5 C2.22044605e-16,15.8806365 1.11922705,16.9998636 2.49986358,16.9998636 L25.5001364,16.9998636 C26.880773,16.9998636 28,15.8806365 28,14.5 C28,13.1193635 26.880773,12.0001364 25.5001364,12.0001364 L2.49986358,12.0001364 Z M2.49986358,11.0001364 L25.5001364,11.0001364 C27.4330577,11.0001364 29,12.5670787 29,14.5 C29,16.4329213 27.4330577,17.9998636 25.5001364,17.9998636 L2.49986358,17.9998636 C0.566942298,17.9998636 -1,16.4329213 -1,14.5 C-1,12.5670787 0.566942298,11.0001364 2.49986358,11.0001364 Z" id="Rectangle-16" fill-rule="nonzero"></path>
                    <g id="Group-7" transform="translate(14.500000, 5.000000) rotate(-180.000000) translate(-14.500000, -5.000000) translate(11.000000, 0.000000)" fill-rule="nonzero">
                        <path d="M5.68765248,3.3904344 C5.90328344,3.56293918 6.21792963,3.52797849 6.3904344,3.31234752 C6.56293918,3.09671656 6.52797849,2.78207037 6.31234752,2.6095656 L3.81234752,0.609565595 C3.6297382,0.463478135 3.3702618,0.463478135 3.18765248,0.609565595 L0.687652476,2.6095656 C0.472021509,2.78207037 0.437060821,3.09671656 0.609565595,3.31234752 C0.782070369,3.52797849 1.09671656,3.56293918 1.31234752,3.3904344 L3.5,1.64031242 L5.68765248,3.3904344 Z" id="Path-25"></path>
                        <path d="M3.05555556,1.22537679 L3.05555556,8.5 C3.05555556,8.77614237 3.27941318,9 3.55555556,9 C3.83169793,9 4.05555556,8.77614237 4.05555556,8.5 L4.05555556,1.22537679 C4.05555556,0.949234416 3.83169793,0.72537679 3.55555556,0.72537679 C3.27941318,0.72537679 3.05555556,0.949234416 3.05555556,1.22537679 Z" id="Path-7"></path>
                    </g>
                    <circle id="Oval-5" cx="25.25" cy="14.25" r="1.25"></circle>
                    <circle id="Oval-5" cx="21.25" cy="14.25" r="1.25"></circle>
                </g>
            </g>
        </g>
    </g>
</svg>