<?xml version="1.0" encoding="UTF-8"?>
<svg width="16px" height="16px" viewBox="0 0 16 16" version="1.1" xmlns="http://www.w3.org/2000/svg" xmlns:xlink="http://www.w3.org/1999/xlink">
    <!-- Generator: Sketch 46.2 (44496) - http://www.bohemiancoding.com/sketch -->
    <title>Group 24</title>
    <desc>Created with Sketch.</desc>
    <defs></defs>
    <g id="Page-1" stroke="none" stroke-width="1" fill="none" fill-rule="evenodd">
        <g id="create-new-instance-2" transform="translate(-870.000000, -1951.000000)" stroke="#676F79">
            <g id="Group-4" transform="translate(862.000000, 1942.000000)">
                <g id="Group-24" transform="translate(16.263456, 17.000000) rotate(-135.000000) translate(-16.263456, -17.000000) translate(4.763456, 5.500000)">
                    <g id="Group-2" transform="translate(0.292893, 0.292893)">
                        <g id="Group-23" transform="translate(11.286321, 11.073298) rotate(-225.000000) translate(-11.286321, -11.073298) translate(3.786321, 3.573298)" stroke-linecap="round" stroke-linejoin="round">
                            <path d="M0.421626728,10.6955911 L10.5947322,0.505719455 L10.5947322,0.505719455 C10.9849349,0.114873753 11.6180996,0.114352429 12.0089453,0.504555046 C12.0102056,0.505813255 12.0114625,0.507074828 12.0127161,0.508339751 L14.0008832,2.51455825 L14.0008832,2.51455825 C14.3861481,2.90332118 14.3872992,3.52957385 14.003466,3.91975044 L3.85951068,14.2313487 L0.421626728,14.2313487 L0.421626728,10.6955911 Z" id="Path-15"></path>
                        </g>
                        <path d="M9.36944323,16.7092615 L14.4976707,16.7071068" id="Path-16"></path>
                        <path d="M9.30103721,4.45370779 L13.7768626,4.51857482" id="Path-16-Copy"></path>
                    </g>
                </g>
            </g>
        </g>
    </g>
</svg>