<?xml version="1.0" encoding="UTF-8"?>
<svg width="48px" height="50px" viewBox="0 0 48 50" version="1.1" xmlns="http://www.w3.org/2000/svg" xmlns:xlink="http://www.w3.org/1999/xlink">
    <!-- Generator: Sketch 46.2 (44496) - http://www.bohemiancoding.com/sketch -->
    <title>Group 7</title>
    <desc>Created with Sketch.</desc>
    <defs></defs>
    <g id="Page-1" stroke="none" stroke-width="1" fill="none" fill-rule="evenodd">
        <g id="Support" transform="translate(-328.000000, -318.000000)">
            <g id="Group-7" transform="translate(329.000000, 319.000000)">
                <path d="M28,14 C28,6.2680135 21.7319865,0 14,0 C6.2680135,0 0,6.2680135 0,14 C0,21.7319865 6.2680135,28 14,28 L14,28" id="Oval-2" stroke="#2980B9" stroke-width="2" stroke-linecap="round"></path>
                <path d="M42.9516698,40.722146 C44.8596204,38.329653 46,35.2980015 46,32 C46,24.2680135 39.7319865,18 32,18 C24.2680135,18 18,24.2680135 18,32 C18,39.7319865 24.2680135,46 32,46 C33.8362616,46 35.5899536,45.6464777 37.1967278,45.0037813 L44.5649414,47.3878174 L42.9516698,40.722146 Z" id="Oval-2-Copy" stroke="#2980B9" stroke-width="2" stroke-linecap="round" stroke-linejoin="round"></path>
                <g id="Group-6" transform="translate(10.000000, 7.000000)">
                    <path d="M3.94391254,10.2033691 L3.94391254,7.88782509 C6.12207529,7.88782509 7.88782509,6.12207529 7.88782509,3.94391254 C7.88782509,1.76574979 6.12207529,0 3.94391254,0 C1.76574979,0 0,1.76574979 0,3.94391254" id="Oval-3" stroke="#2980B9" stroke-width="2" stroke-linecap="round" stroke-linejoin="round"></path>
                    <circle id="Oval-4" fill="#2980B9" cx="4" cy="14" r="1"></circle>
                </g>
                <polyline id="Path-17" stroke="#2980B9" stroke-width="2" stroke-linecap="round" stroke-linejoin="round" points="27 32.6025391 31.3847656 37.2897949 38.1135254 29"></polyline>
            </g>
        </g>
    </g>
</svg>