<?xml version="1.0" encoding="UTF-8"?>
<svg width="16px" height="20px" viewBox="0 0 16 20" version="1.1" xmlns="http://www.w3.org/2000/svg" xmlns:xlink="http://www.w3.org/1999/xlink">
    <!-- Generator: Sketch 46.2 (44496) - http://www.bohemiancoding.com/sketch -->
    <title>Group 7</title>
    <desc>Created with Sketch.</desc>
    <defs></defs>
    <g id="Page-1" stroke="none" stroke-width="1" fill="none" fill-rule="evenodd">
        <g id="Billing_history" transform="translate(-1047.000000, -390.000000)" fill-rule="nonzero" fill="#FFFFFF">
            <g id="Group-7" transform="translate(1047.000000, 389.000000)">
                <path d="M1.28625759,7.453125 L1.00031439,18.8537143 C1,19.4310726 1.44771525,19.8787879 2,19.8787879 L13.9492081,19.8787879 C14.5014929,19.8787879 14.9492081,19.4310726 14.9492081,18.8787879 L14.9492081,3 C14.9492081,2.44771525 14.5014929,2 13.9492081,2 L6.46825111,2 L6.46825111,6.453125 C6.46825111,7.00540975 6.02053586,7.453125 5.46825111,7.453125 L1.28625759,7.453125 Z M5.46825111,6.453125 L5.46825111,1 L13.9492081,1 C15.0537776,1 15.9492081,1.8954305 15.9492081,3 L15.9492081,18.8787879 C15.9492081,19.9833574 15.0537776,20.8787879 13.9492081,20.8787879 L2,20.8787879 C0.8954305,20.8787879 -3.18634008e-14,19.9833574 -3.19744231e-14,18.8787879 C-3.19744231e-14,18.8676428 0.103674848,14.7257551 0.311024545,6.453125 L5.46825111,6.453125 Z" id="Rectangle-13"></path>
                <path d="M1.17400087,6.80888004 L5.90482058,1.84074039 C6.09524793,1.64076031 6.08750392,1.32427255 5.88752384,1.13384519 C5.68754376,0.943417837 5.371056,0.951161849 5.18062864,1.15114193 L0.44980894,6.11928158 C0.259381582,6.31926166 0.267125594,6.63574942 0.467105675,6.82617678 C0.667085756,7.01660414 0.983573517,7.00886012 1.17400087,6.80888004 Z" id="Path-7"></path>
                <path d="M5,12 L10.5,12 C10.7761424,12 11,11.7761424 11,11.5 C11,11.2238576 10.7761424,11 10.5,11 L5,11 C4.72385763,11 4.5,11.2238576 4.5,11.5 C4.5,11.7761424 4.72385763,12 5,12 Z" id="Path-8"></path>
                <path d="M5,15 L10.5,15 C10.7761424,15 11,14.7761424 11,14.5 C11,14.2238576 10.7761424,14 10.5,14 L5,14 C4.72385763,14 4.5,14.2238576 4.5,14.5 C4.5,14.7761424 4.72385763,15 5,15 Z" id="Path-8"></path>
            </g>
        </g>
    </g>
</svg>