<?xml version="1.0" encoding="UTF-8"?>
<svg width="19px" height="22px" viewBox="0 0 19 22" version="1.1" xmlns="http://www.w3.org/2000/svg" xmlns:xlink="http://www.w3.org/1999/xlink">
    <!-- Generator: Sketch 46.2 (44496) - http://www.bohemiancoding.com/sketch -->
    <title>Group 14</title>
    <desc>Created with Sketch.</desc>
    <defs></defs>
    <g id="Page-1" stroke="none" stroke-width="1" fill="none" fill-rule="evenodd">
        <g id="create-new-instance-3" transform="translate(-502.000000, -2536.000000)" fill-rule="nonzero">
            <g id="Group-3" transform="translate(503.000000, 2537.000000)">
                <g id="Group-14" transform="translate(-1.000000, -1.000000)">
                    <path d="M13.0909091,11.755 C10.0028673,11.755 7.50681818,9.19238955 7.50681818,6.04 C7.50681818,2.88761045 10.0028673,0.325 13.0909091,0.325 C16.1789509,0.325 18.675,2.88761045 18.675,6.04 C18.675,9.19238955 16.1789509,11.755 13.0909091,11.755 Z M13.0909091,10.405 C15.4252994,10.405 17.325,8.45464073 17.325,6.04 C17.325,3.62535927 15.4252994,1.675 13.0909091,1.675 C10.7565188,1.675 8.85681818,3.62535927 8.85681818,6.04 C8.85681818,8.45464073 10.7565188,10.405 13.0909091,10.405 Z" id="Oval-7" fill="#FFFFFF"></path>
                    <polygon id="Path-11" fill="#FFFFFF" points="10.4500169 9.82727056 9.47692876 8.89153583 0.0623075264 18.6819775 3.22655097 21.9544592 4.19706011 21.0160499 1.93769247 18.6793968"></polygon>
                    <polygon id="Path-12" fill="#FFFFFF" points="2.73336569 16.2416034 5.90604589 19.4345893 6.86368021 18.483045 3.69100001 15.2900591"></polygon>
                </g>
            </g>
        </g>
    </g>
</svg>