<?xml version="1.0" encoding="utf-8"?>
<!-- Generator: Adobe Illustrator 21.0.0, SVG Export Plug-In . SVG Version: 6.00 Build 0)  -->
<svg version="1.1" id="Слой_1" xmlns="http://www.w3.org/2000/svg" xmlns:xlink="http://www.w3.org/1999/xlink" x="0px" y="0px"
	 viewBox="0 0 844.9 277" style="enable-background:new 0 0 844.9 277;" xml:space="preserve">
<style type="text/css">
	.st0{fill:#2980B9;}
</style>
<title>logo</title>
<desc>Created with Sketch.</desc>
<g id="Page-1">
	<g id="logo">
		<path id="Shape-Copy-23" class="st0" d="M707,90.1c-15-26.1-47.1-37-74.9-25.5c-27.8,11.5-42.8,41.9-35,71s36,47.9,65.8,44
			c29.9-3.9,52.2-29.4,52.1-59.6C715,109.5,712.2,99.2,707,90.1z M655,149.9c-16.6,0-30-13.4-30-30c0-0.3,0-0.5,0-0.8
			c0.4-16.5,14.1-29.5,30.5-29.2c16.5,0.3,29.6,13.8,29.5,30.3C684.9,136.7,671.5,149.9,655,149.9z"/>
		<path id="Shape-Copy-24" class="st0" d="M785,60c-33.1,0-60,26.9-60,60s26.9,60,60,60c2.8,0,5.6-0.2,8.4-0.6
			c31.2-4.4,53.6-32.2,51.4-63.6C842.6,84.4,816.5,60,785,60L785,60z M793.4,148.8c-12.3,3.6-25.6-1-33-11.5s-7.3-24.5,0.3-34.9
			s20.9-14.8,33.2-11c12.3,3.8,20.7,15,21.1,27.8c0,0.3,0,0.5,0,0.8C815,133.3,806.2,145,793.4,148.8L793.4,148.8z"/>
		<path id="Combined-Shape" class="st0" d="M585,15v105h-30V15c0-8.3,6.7-15,15-15S585,6.7,585,15z"/>
		<path id="Shape-Copy-26" class="st0" d="M525,60c-33.1,0-60,26.9-60,60s26.9,60,60,60s60-26.9,60-60S558.1,60,525,60z M525,150
			c-16.6,0-30-13.4-30-30s13.4-30,30-30s30,13.4,30,30S541.6,150,525,150z"/>
		<rect id="Rectangle-path-Copy-8" x="350" y="120" class="st0" width="30" height="45"/>
		<circle id="Oval-Copy-8" class="st0" cx="365" cy="165" r="15"/>
		<path id="Shape-Copy-27" class="st0" d="M320,60c-33.1,0-60,26.9-60,60s26.9,60,60,60s60-26.9,60-60S353.1,60,320,60z M320,150
			c-16.6,0-30-13.4-30-30s13.4-30,30-30s30,13.4,30,30S336.6,150,320,150z"/>
		<path id="Combined-Shape-Copy-4" class="st0" d="M250,75v45h-30V75c0-8.3,6.7-15,15-15S250,66.7,250,75z M160,75v45h-30V75
			c0-8.3,6.7-15,15-15S160,66.7,160,75z M220,120h30c0,33.1-26.9,60-60,60s-60-26.9-60-60h30c0,16.6,13.4,30,30,30
			S220,136.6,220,120z"/>
		<path id="Shape-Copy-28" class="st0" d="M390,166L390,166c0-0.3,0-0.7,0-1V166z"/>
		<path id="Shape-Copy-71" class="st0" d="M99.3,165c-22.7-20-56.7-20-79.3,0C42.7,185,76.7,185,99.3,165L99.3,165z"/>
		<path id="Combined-Shape-Copy-7" class="st0" d="M59.8,150c0.1,0,0.3,0,0.4,0c16.5-0.1,29.8-13.5,29.8-30c0-16.6-13.4-30-30-30
			s-30,13.4-30,30c0,8,3.2,15.6,8.8,21.2C44.4,146.8,51.9,150,59.8,150z M58.9,150c-14.2,0.3-27.9,5.6-38.5,15
			C1.6,148.5-4.9,122.1,3.9,98.8C12.7,75.5,35,60,60,60s47.3,15.5,56.1,38.8c8.8,23.3,2.3,49.7-16.5,66.2
			c-10.7-9.4-24.3-14.7-38.5-15c13.8,0.3,27.5,5.3,38.5,15l0,0C77,185,43,185,20.3,165C31.4,155.3,45.1,150.3,58.9,150z"/>
		<g id="Group-3-Copy-6" transform="translate(404.000000, 819.000000)">
			<path id="Shape" class="st0" d="M-314-602c0,16.6-13.4,30-30,30s-30-13.4-30-30h-30c0,33.1,26.9,60,60,60s60-26.9,60-60H-314z"/>
			<circle id="Oval-2-Copy-4" class="st0" cx="-389" cy="-602" r="15"/>
			<circle id="Oval-2-Copy-5" class="st0" cx="-299" cy="-601" r="15"/>
		</g>
		<path id="Combined-Shape-Copy-8" class="st0" d="M390,165c0,8.3,6.7,15,15,15s15-6.7,15-15v-45h-30V165z"/>
		<path id="Path-8-Copy-3" class="st0" d="M390,128.6c24.5,0,29,0,29.8,0c0.1,0,0.2-2.2,0.2-6.6c0-8.3-6.7-15-15-15s-15,6.7-15,15
			V128.6c0,0,10,0,30,0c0,0,0-1.5,0-4.5c0-3.6,0-3.7,0-8.5c0.8-9.5,7.1-18.2,17.3-22.9c2-0.9,6.8-2,13.8-2.7
			c8.2-0.8,14.2-8.2,13.4-16.4c-0.8-8.2-8.2-14.2-16.4-13.4c-10.1,1-17.7,2.7-23.4,5.3c-20,9.4-33.3,27.7-34.6,48.7
			c0,0.3,0,0.6,0,0.9V128.6z"/>
	</g>
</g>
</svg>
