<?xml version="1.0" encoding="UTF-8"?>
<svg width="21px" height="21px" viewBox="0 0 21 21" version="1.1" xmlns="http://www.w3.org/2000/svg" xmlns:xlink="http://www.w3.org/1999/xlink">
    <!-- Generator: Sketch 48.2 (47327) - http://www.bohemiancoding.com/sketch -->
    <title>Shape</title>
    <desc>Created with Sketch.</desc>
    <defs></defs>
    <g id="interface" stroke="none" stroke-width="1" fill="none" fill-rule="evenodd" transform="translate(-235.000000, -703.000000)">
        <path d="M253.022043,719.0584 C252.507575,719.139832 251.98416,719.180547 251.451797,719.180547 C249.718263,719.180547 248.114465,718.769104 246.640401,717.948362 C245.164101,717.127619 243.998719,716.011152 243.142018,714.596817 C242.285317,713.182482 241.855848,711.646 241.855848,709.987371 C241.855848,708.236596 242.350184,706.607969 243.341095,705.103631 C241.428615,705.650078 239.862843,706.695829 238.650487,708.236596 C237.435895,709.777364 236.829717,711.528139 236.829717,713.488921 C236.829717,714.673962 237.07353,715.807573 237.55892,716.887611 C238.044309,717.967648 238.695224,718.89768 239.507188,719.677707 C240.319153,720.457734 241.292169,721.079184 242.419526,721.544201 C243.546882,722.009217 244.730159,722.242796 245.967119,722.242796 C247.338289,722.242796 248.640117,721.962072 249.872604,721.400624 C251.10509,720.843462 252.154158,720.063435 253.022043,719.0584 Z M255.92096,717.896931 C255.026233,719.748424 253.677431,721.227047 251.872319,722.337085 C250.067207,723.444981 248.101044,724 245.967119,724 C244.481872,724 243.063729,723.721419 241.712691,723.1664 C240.361653,722.609238 239.194034,721.861354 238.214308,720.92275 C237.234581,719.984147 236.451695,718.863393 235.870122,717.569063 C235.28855,716.274732 235,714.916114 235,713.493207 C235,712.098159 235.272892,710.763113 235.820912,709.492354 C236.368933,708.219453 237.111556,707.117986 238.048783,706.187954 C238.98601,705.257922 240.106656,704.507896 241.410721,703.937876 C242.714786,703.367856 244.094902,703.054988 245.551071,703.001415 C245.969356,702.982129 246.260142,703.159992 246.421193,703.535005 C246.593428,703.907875 246.52185,704.237886 246.206459,704.520753 C245.387783,705.232207 244.761474,706.059378 244.329768,707.004411 C243.895826,707.947301 243.681091,708.943764 243.681091,709.9938 C243.681091,711.343847 244.027798,712.58889 244.723448,713.72893 C245.419099,714.868969 246.360799,715.771143 247.550786,716.437595 C248.740774,717.097618 250.040365,717.431915 251.44956,717.431915 C252.572443,717.431915 253.6573,717.198336 254.706368,716.73332 C255.095574,716.568314 255.440044,716.628316 255.735304,716.911183 C255.869513,717.039759 255.952275,717.19405 255.985827,717.376199 C256.017143,717.558348 255.997012,717.731926 255.92096,717.896931 Z" id="Shape" fill="#3B80B5" fill-rule="nonzero"></path>
    </g>
</svg>