<?xml version="1.0" encoding="UTF-8"?>
<svg width="24px" height="24px" viewBox="0 0 24 24" version="1.1" xmlns="http://www.w3.org/2000/svg" xmlns:xlink="http://www.w3.org/1999/xlink">
    <title>Group 5</title>
    <desc>Created with Sketch.</desc>
    <defs></defs>
    <g id="Page-1" stroke="none" stroke-width="1" fill="none" fill-rule="evenodd">
        <g id="create-new-instance-3" transform="translate(-531.000000, -549.000000)" fill="#2980B9">
            <g id="Group-26" transform="translate(531.000000, 549.000000)">
                <g id="Group-5">
                    <path d="M15.9158688,9.15513003 C15.9158688,6.87422541 14.1587825,5 11.9579344,5 C9.75708633,5 8,6.87422541 8,9.15513003 C8,9.70741478 8.44771525,10.15513 9,10.15513 C9.55228475,10.15513 10,9.70741478 10,9.15513003 C10,7.95097425 10.8915384,7 11.9579344,7 C13.0243305,7 13.9158688,7.95097425 13.9158688,9.15513003 C13.9158688,10.3592858 13.0243305,11.3102601 11.9579344,11.3102601 C11.4056497,11.3102601 10.9579344,11.7579753 10.9579344,12.3102601 L10.9579344,14.1626953 C10.9579344,14.7149801 11.4056497,15.1626953 11.9579344,15.1626953 C12.5102192,15.1626953 12.9579344,14.7149801 12.9579344,14.1626953 L12.9579344,13.1769924 C14.6678287,12.7109026 15.9158688,11.0774463 15.9158688,9.15513003 Z" id="Oval-3" fill-rule="nonzero"></path>
                    <ellipse id="Oval-4" cx="12" cy="18.0666667" rx="1" ry="1.06666667"></ellipse>
                    <path d="M12,24 C5.372583,24 0,18.627417 0,12 C0,5.372583 5.372583,0 12,0 C18.627417,0 24,5.372583 24,12 C24,18.627417 18.627417,24 12,24 Z M12,22 C17.5228475,22 22,17.5228475 22,12 C22,6.4771525 17.5228475,2 12,2 C6.4771525,2 2,6.4771525 2,12 C2,17.5228475 6.4771525,22 12,22 Z" id="Oval-12" fill-rule="nonzero"></path>
                </g>
            </g>
        </g>
    </g>
</svg>