<?xml version="1.0" encoding="UTF-8"?>
<svg width="15px" height="16px" viewBox="0 0 15 16" version="1.1" xmlns="http://www.w3.org/2000/svg" xmlns:xlink="http://www.w3.org/1999/xlink">
    <!-- Generator: Sketch 46.2 (44496) - http://www.bohemiancoding.com/sketch -->
    <title>Group 15</title>
    <desc>Created with Sketch.</desc>
    <defs></defs>
    <g id="Page-1" stroke="none" stroke-width="1" fill="none" fill-rule="evenodd">
        <g id="server_snapshots" transform="translate(-1047.000000, -394.000000)" fill-rule="nonzero" fill="#FF6969">
            <g id="Group-15" transform="translate(1047.000000, 394.000000)">
                <g id="Group-10">
                    <path d="M1,3.5 L14,3.5 C14.2761424,3.5 14.5,3.27614237 14.5,3 C14.5,2.72385763 14.2761424,2.5 14,2.5 L1,2.5 C0.723857625,2.5 0.5,2.72385763 0.5,3 C0.5,3.27614237 0.723857625,3.5 1,3.5 Z" id="Path-9"></path>
                    <path d="M2.5,3.5 L2.5,14.9680786 L12.5219727,14.9680786 L12.5219727,3.5 L2.5,3.5 Z M2,2.5 L13.0219727,2.5 C13.298115,2.5 13.5219727,2.72385763 13.5219727,3 L13.5219727,15.4680786 C13.5219727,15.744221 13.298115,15.9680786 13.0219727,15.9680786 L2,15.9680786 C1.72385763,15.9680786 1.5,15.744221 1.5,15.4680786 L1.5,3 C1.5,2.72385763 1.72385763,2.5 2,2.5 Z" id="Path-9"></path>
                    <path d="M6,1.5 L8.53726999,1.5 C8.81341236,1.5 9.03726999,1.27614237 9.03726999,1 C9.03726999,0.723857625 8.81341236,0.5 8.53726999,0.5 L6,0.5 C5.72385763,0.5 5.5,0.723857625 5.5,1 C5.5,1.27614237 5.72385763,1.5 6,1.5 Z" id="Path-9"></path>
                </g>
                <path d="M5.00244141,5.9465332 L5.00244141,11.6078018 C5.00244141,11.8839442 5.22629903,12.1078018 5.50244141,12.1078018 C5.77858378,12.1078018 6.00244141,11.8839442 6.00244141,11.6078018 L6.00244141,5.9465332 C6.00244141,5.67039083 5.77858378,5.4465332 5.50244141,5.4465332 C5.22629903,5.4465332 5.00244141,5.67039083 5.00244141,5.9465332 Z" id="Path-10"></path>
                <path d="M9.00244141,5.9465332 L9.00244141,11.6078018 C9.00244141,11.8839442 9.22629903,12.1078018 9.50244141,12.1078018 C9.77858378,12.1078018 10.0024414,11.8839442 10.0024414,11.6078018 L10.0024414,5.9465332 C10.0024414,5.67039083 9.77858378,5.4465332 9.50244141,5.4465332 C9.22629903,5.4465332 9.00244141,5.67039083 9.00244141,5.9465332 Z" id="Path-10"></path>
            </g>
        </g>
    </g>
</svg>