<?xml version="1.0" encoding="utf-8"?>
<!-- Generator: Adobe Illustrator 21.0.0, SVG Export Plug-In . SVG Version: 6.00 Build 0)  -->
<svg version="1.1" id="Слой_1" xmlns:ev="http://www.w3.org/2001/xml-events"
	 xmlns="http://www.w3.org/2000/svg" xmlns:xlink="http://www.w3.org/1999/xlink" x="0px" y="0px" viewBox="0 0 200 200"
	 style="enable-background:new 0 0 200 200;" xml:space="preserve">
<style type="text/css">
	.st0{fill:#FFFFFF;}
</style>
<rect x="-32" y="-32" class="st0" width="264" height="264"/>
<g>
	<g>
		<rect id="p" width="8" height="8"/>
	</g>
	<g>
		<rect id="p_1_" y="8" width="8" height="8"/>
	</g>
	<g>
		<rect id="p_2_" y="16" width="8" height="8"/>
	</g>
	<g>
		<rect id="p_3_" y="24" width="8" height="8"/>
	</g>
	<g>
		<rect id="p_4_" y="32" width="8" height="8"/>
	</g>
	<g>
		<rect id="p_5_" y="40" width="8" height="8"/>
	</g>
	<g>
		<rect id="p_6_" y="48" width="8" height="8"/>
	</g>
	<g>
		<rect id="p_7_" y="72" width="8" height="8"/>
	</g>
	<g>
		<rect id="p_8_" y="88" width="8" height="8"/>
	</g>
	<g>
		<rect id="p_9_" y="104" width="8" height="8"/>
	</g>
	<g>
		<rect id="p_10_" y="120" width="8" height="8"/>
	</g>
	<g>
		<rect id="p_11_" y="144" width="8" height="8"/>
	</g>
	<g>
		<rect id="p_12_" y="152" width="8" height="8"/>
	</g>
	<g>
		<rect id="p_13_" y="160" width="8" height="8"/>
	</g>
	<g>
		<rect id="p_14_" y="168" width="8" height="8"/>
	</g>
	<g>
		<rect id="p_15_" y="176" width="8" height="8"/>
	</g>
	<g>
		<rect id="p_16_" y="184" width="8" height="8"/>
	</g>
	<g>
		<rect id="p_17_" y="192" width="8" height="8"/>
	</g>
	<g>
		<rect id="p_18_" x="8" width="8" height="8"/>
	</g>
	<g>
		<rect id="p_19_" x="8" y="48" width="8" height="8"/>
	</g>
	<g>
		<rect id="p_20_" x="8" y="88" width="8" height="8"/>
	</g>
	<g>
		<rect id="p_21_" x="8" y="96" width="8" height="8"/>
	</g>
	<g>
		<rect id="p_22_" x="8" y="104" width="8" height="8"/>
	</g>
	<g>
		<rect id="p_23_" x="8" y="112" width="8" height="8"/>
	</g>
	<g>
		<rect id="p_24_" x="8" y="144" width="8" height="8"/>
	</g>
	<g>
		<rect id="p_25_" x="8" y="192" width="8" height="8"/>
	</g>
	<g>
		<rect id="p_26_" x="16" width="8" height="8"/>
	</g>
	<g>
		<rect id="p_27_" x="16" y="16" width="8" height="8"/>
	</g>
	<g>
		<rect id="p_28_" x="16" y="24" width="8" height="8"/>
	</g>
	<g>
		<rect id="p_29_" x="16" y="32" width="8" height="8"/>
	</g>
	<g>
		<rect id="p_30_" x="16" y="48" width="8" height="8"/>
	</g>
	<g>
		<rect id="p_31_" x="16" y="72" width="8" height="8"/>
	</g>
	<g>
		<rect id="p_32_" x="16" y="80" width="8" height="8"/>
	</g>
	<g>
		<rect id="p_33_" x="16" y="88" width="8" height="8"/>
	</g>
	<g>
		<rect id="p_34_" x="16" y="104" width="8" height="8"/>
	</g>
	<g>
		<rect id="p_35_" x="16" y="112" width="8" height="8"/>
	</g>
	<g>
		<rect id="p_36_" x="16" y="128" width="8" height="8"/>
	</g>
	<g>
		<rect id="p_37_" x="16" y="144" width="8" height="8"/>
	</g>
	<g>
		<rect id="p_38_" x="16" y="160" width="8" height="8"/>
	</g>
	<g>
		<rect id="p_39_" x="16" y="168" width="8" height="8"/>
	</g>
	<g>
		<rect id="p_40_" x="16" y="176" width="8" height="8"/>
	</g>
	<g>
		<rect id="p_41_" x="16" y="192" width="8" height="8"/>
	</g>
	<g>
		<rect id="p_42_" x="24" width="8" height="8"/>
	</g>
	<g>
		<rect id="p_43_" x="24" y="16" width="8" height="8"/>
	</g>
	<g>
		<rect id="p_44_" x="24" y="24" width="8" height="8"/>
	</g>
	<g>
		<rect id="p_45_" x="24" y="32" width="8" height="8"/>
	</g>
	<g>
		<rect id="p_46_" x="24" y="48" width="8" height="8"/>
	</g>
	<g>
		<rect id="p_47_" x="24" y="64" width="8" height="8"/>
	</g>
	<g>
		<rect id="p_48_" x="24" y="72" width="8" height="8"/>
	</g>
	<g>
		<rect id="p_49_" x="24" y="96" width="8" height="8"/>
	</g>
	<g>
		<rect id="p_50_" x="24" y="104" width="8" height="8"/>
	</g>
	<g>
		<rect id="p_51_" x="24" y="120" width="8" height="8"/>
	</g>
	<g>
		<rect id="p_52_" x="24" y="128" width="8" height="8"/>
	</g>
	<g>
		<rect id="p_53_" x="24" y="144" width="8" height="8"/>
	</g>
	<g>
		<rect id="p_54_" x="24" y="160" width="8" height="8"/>
	</g>
	<g>
		<rect id="p_55_" x="24" y="168" width="8" height="8"/>
	</g>
	<g>
		<rect id="p_56_" x="24" y="176" width="8" height="8"/>
	</g>
	<g>
		<rect id="p_57_" x="24" y="192" width="8" height="8"/>
	</g>
	<g>
		<rect id="p_58_" x="32" width="8" height="8"/>
	</g>
	<g>
		<rect id="p_59_" x="32" y="16" width="8" height="8"/>
	</g>
	<g>
		<rect id="p_60_" x="32" y="24" width="8" height="8"/>
	</g>
	<g>
		<rect id="p_61_" x="32" y="32" width="8" height="8"/>
	</g>
	<g>
		<rect id="p_62_" x="32" y="48" width="8" height="8"/>
	</g>
	<g>
		<rect id="p_63_" x="32" y="72" width="8" height="8"/>
	</g>
	<g>
		<rect id="p_64_" x="32" y="80" width="8" height="8"/>
	</g>
	<g>
		<rect id="p_65_" x="32" y="88" width="8" height="8"/>
	</g>
	<g>
		<rect id="p_66_" x="32" y="112" width="8" height="8"/>
	</g>
	<g>
		<rect id="p_67_" x="32" y="144" width="8" height="8"/>
	</g>
	<g>
		<rect id="p_68_" x="32" y="160" width="8" height="8"/>
	</g>
	<g>
		<rect id="p_69_" x="32" y="168" width="8" height="8"/>
	</g>
	<g>
		<rect id="p_70_" x="32" y="176" width="8" height="8"/>
	</g>
	<g>
		<rect id="p_71_" x="32" y="192" width="8" height="8"/>
	</g>
	<g>
		<rect id="p_72_" x="40" width="8" height="8"/>
	</g>
	<g>
		<rect id="p_73_" x="40" y="48" width="8" height="8"/>
	</g>
	<g>
		<rect id="p_74_" x="40" y="96" width="8" height="8"/>
	</g>
	<g>
		<rect id="p_75_" x="40" y="104" width="8" height="8"/>
	</g>
	<g>
		<rect id="p_76_" x="40" y="144" width="8" height="8"/>
	</g>
	<g>
		<rect id="p_77_" x="40" y="192" width="8" height="8"/>
	</g>
	<g>
		<rect id="p_78_" x="48" width="8" height="8"/>
	</g>
	<g>
		<rect id="p_79_" x="48" y="8" width="8" height="8"/>
	</g>
	<g>
		<rect id="p_80_" x="48" y="16" width="8" height="8"/>
	</g>
	<g>
		<rect id="p_81_" x="48" y="24" width="8" height="8"/>
	</g>
	<g>
		<rect id="p_82_" x="48" y="32" width="8" height="8"/>
	</g>
	<g>
		<rect id="p_83_" x="48" y="40" width="8" height="8"/>
	</g>
	<g>
		<rect id="p_84_" x="48" y="48" width="8" height="8"/>
	</g>
	<g>
		<rect id="p_85_" x="48" y="64" width="8" height="8"/>
	</g>
	<g>
		<rect id="p_86_" x="48" y="80" width="8" height="8"/>
	</g>
	<g>
		<rect id="p_87_" x="48" y="96" width="8" height="8"/>
	</g>
	<g>
		<rect id="p_88_" x="48" y="112" width="8" height="8"/>
	</g>
	<g>
		<rect id="p_89_" x="48" y="128" width="8" height="8"/>
	</g>
	<g>
		<rect id="p_90_" x="48" y="144" width="8" height="8"/>
	</g>
	<g>
		<rect id="p_91_" x="48" y="152" width="8" height="8"/>
	</g>
	<g>
		<rect id="p_92_" x="48" y="160" width="8" height="8"/>
	</g>
	<g>
		<rect id="p_93_" x="48" y="168" width="8" height="8"/>
	</g>
	<g>
		<rect id="p_94_" x="48" y="176" width="8" height="8"/>
	</g>
	<g>
		<rect id="p_95_" x="48" y="184" width="8" height="8"/>
	</g>
	<g>
		<rect id="p_96_" x="48" y="192" width="8" height="8"/>
	</g>
	<g>
		<rect id="p_97_" x="56" y="80" width="8" height="8"/>
	</g>
	<g>
		<rect id="p_98_" x="56" y="104" width="8" height="8"/>
	</g>
	<g>
		<rect id="p_99_" x="56" y="112" width="8" height="8"/>
	</g>
	<g>
		<rect id="p_100_" x="56" y="128" width="8" height="8"/>
	</g>
	<g>
		<rect id="p_101_" x="64" width="8" height="8"/>
	</g>
	<g>
		<rect id="p_102_" x="64" y="8" width="8" height="8"/>
	</g>
	<g>
		<rect id="p_103_" x="64" y="24" width="8" height="8"/>
	</g>
	<g>
		<rect id="p_104_" x="64" y="32" width="8" height="8"/>
	</g>
	<g>
		<rect id="p_105_" x="64" y="40" width="8" height="8"/>
	</g>
	<g>
		<rect id="p_106_" x="64" y="48" width="8" height="8"/>
	</g>
	<g>
		<rect id="p_107_" x="64" y="80" width="8" height="8"/>
	</g>
	<g>
		<rect id="p_108_" x="64" y="88" width="8" height="8"/>
	</g>
	<g>
		<rect id="p_109_" x="64" y="104" width="8" height="8"/>
	</g>
	<g>
		<rect id="p_110_" x="64" y="112" width="8" height="8"/>
	</g>
	<g>
		<rect id="p_111_" x="64" y="128" width="8" height="8"/>
	</g>
	<g>
		<rect id="p_112_" x="64" y="136" width="8" height="8"/>
	</g>
	<g>
		<rect id="p_113_" x="64" y="168" width="8" height="8"/>
	</g>
	<g>
		<rect id="p_114_" x="72" width="8" height="8"/>
	</g>
	<g>
		<rect id="p_115_" x="72" y="8" width="8" height="8"/>
	</g>
	<g>
		<rect id="p_116_" x="72" y="16" width="8" height="8"/>
	</g>
	<g>
		<rect id="p_117_" x="72" y="32" width="8" height="8"/>
	</g>
	<g>
		<rect id="p_118_" x="72" y="40" width="8" height="8"/>
	</g>
	<g>
		<rect id="p_119_" x="72" y="56" width="8" height="8"/>
	</g>
	<g>
		<rect id="p_120_" x="72" y="64" width="8" height="8"/>
	</g>
	<g>
		<rect id="p_121_" x="72" y="80" width="8" height="8"/>
	</g>
	<g>
		<rect id="p_122_" x="72" y="88" width="8" height="8"/>
	</g>
	<g>
		<rect id="p_123_" x="72" y="96" width="8" height="8"/>
	</g>
	<g>
		<rect id="p_124_" x="72" y="120" width="8" height="8"/>
	</g>
	<g>
		<rect id="p_125_" x="72" y="128" width="8" height="8"/>
	</g>
	<g>
		<rect id="p_126_" x="72" y="144" width="8" height="8"/>
	</g>
	<g>
		<rect id="p_127_" x="72" y="152" width="8" height="8"/>
	</g>
	<g>
		<rect id="p_128_" x="72" y="184" width="8" height="8"/>
	</g>
	<g>
		<rect id="p_129_" x="72" y="192" width="8" height="8"/>
	</g>
	<g>
		<rect id="p_130_" x="80" y="32" width="8" height="8"/>
	</g>
	<g>
		<rect id="p_131_" x="80" y="40" width="8" height="8"/>
	</g>
	<g>
		<rect id="p_132_" x="80" y="48" width="8" height="8"/>
	</g>
	<g>
		<rect id="p_133_" x="80" y="64" width="8" height="8"/>
	</g>
	<g>
		<rect id="p_134_" x="80" y="80" width="8" height="8"/>
	</g>
	<g>
		<rect id="p_135_" x="80" y="96" width="8" height="8"/>
	</g>
	<g>
		<rect id="p_136_" x="80" y="112" width="8" height="8"/>
	</g>
	<g>
		<rect id="p_137_" x="80" y="120" width="8" height="8"/>
	</g>
	<g>
		<rect id="p_138_" x="80" y="128" width="8" height="8"/>
	</g>
	<g>
		<rect id="p_139_" x="80" y="136" width="8" height="8"/>
	</g>
	<g>
		<rect id="p_140_" x="80" y="144" width="8" height="8"/>
	</g>
	<g>
		<rect id="p_141_" x="80" y="152" width="8" height="8"/>
	</g>
	<g>
		<rect id="p_142_" x="80" y="160" width="8" height="8"/>
	</g>
	<g>
		<rect id="p_143_" x="80" y="168" width="8" height="8"/>
	</g>
	<g>
		<rect id="p_144_" x="88" width="8" height="8"/>
	</g>
	<g>
		<rect id="p_145_" x="88" y="16" width="8" height="8"/>
	</g>
	<g>
		<rect id="p_146_" x="88" y="24" width="8" height="8"/>
	</g>
	<g>
		<rect id="p_147_" x="88" y="32" width="8" height="8"/>
	</g>
	<g>
		<rect id="p_148_" x="88" y="40" width="8" height="8"/>
	</g>
	<g>
		<rect id="p_149_" x="88" y="72" width="8" height="8"/>
	</g>
	<g>
		<rect id="p_150_" x="88" y="88" width="8" height="8"/>
	</g>
	<g>
		<rect id="p_151_" x="88" y="104" width="8" height="8"/>
	</g>
	<g>
		<rect id="p_152_" x="88" y="112" width="8" height="8"/>
	</g>
	<g>
		<rect id="p_153_" x="88" y="136" width="8" height="8"/>
	</g>
	<g>
		<rect id="p_154_" x="88" y="168" width="8" height="8"/>
	</g>
	<g>
		<rect id="p_155_" x="88" y="176" width="8" height="8"/>
	</g>
	<g>
		<rect id="p_156_" x="88" y="184" width="8" height="8"/>
	</g>
	<g>
		<rect id="p_157_" x="88" y="192" width="8" height="8"/>
	</g>
	<g>
		<rect id="p_158_" x="96" width="8" height="8"/>
	</g>
	<g>
		<rect id="p_159_" x="96" y="8" width="8" height="8"/>
	</g>
	<g>
		<rect id="p_160_" x="96" y="32" width="8" height="8"/>
	</g>
	<g>
		<rect id="p_161_" x="96" y="48" width="8" height="8"/>
	</g>
	<g>
		<rect id="p_162_" x="96" y="64" width="8" height="8"/>
	</g>
	<g>
		<rect id="p_163_" x="96" y="88" width="8" height="8"/>
	</g>
	<g>
		<rect id="p_164_" x="96" y="120" width="8" height="8"/>
	</g>
	<g>
		<rect id="p_165_" x="96" y="128" width="8" height="8"/>
	</g>
	<g>
		<rect id="p_166_" x="96" y="136" width="8" height="8"/>
	</g>
	<g>
		<rect id="p_167_" x="96" y="168" width="8" height="8"/>
	</g>
	<g>
		<rect id="p_168_" x="96" y="192" width="8" height="8"/>
	</g>
	<g>
		<rect id="p_169_" x="104" y="16" width="8" height="8"/>
	</g>
	<g>
		<rect id="p_170_" x="104" y="40" width="8" height="8"/>
	</g>
	<g>
		<rect id="p_171_" x="104" y="56" width="8" height="8"/>
	</g>
	<g>
		<rect id="p_172_" x="104" y="80" width="8" height="8"/>
	</g>
	<g>
		<rect id="p_173_" x="104" y="104" width="8" height="8"/>
	</g>
	<g>
		<rect id="p_174_" x="104" y="144" width="8" height="8"/>
	</g>
	<g>
		<rect id="p_175_" x="104" y="152" width="8" height="8"/>
	</g>
	<g>
		<rect id="p_176_" x="112" width="8" height="8"/>
	</g>
	<g>
		<rect id="p_177_" x="112" y="16" width="8" height="8"/>
	</g>
	<g>
		<rect id="p_178_" x="112" y="24" width="8" height="8"/>
	</g>
	<g>
		<rect id="p_179_" x="112" y="48" width="8" height="8"/>
	</g>
	<g>
		<rect id="p_180_" x="112" y="72" width="8" height="8"/>
	</g>
	<g>
		<rect id="p_181_" x="112" y="104" width="8" height="8"/>
	</g>
	<g>
		<rect id="p_182_" x="112" y="168" width="8" height="8"/>
	</g>
	<g>
		<rect id="p_183_" x="120" width="8" height="8"/>
	</g>
	<g>
		<rect id="p_184_" x="120" y="24" width="8" height="8"/>
	</g>
	<g>
		<rect id="p_185_" x="120" y="40" width="8" height="8"/>
	</g>
	<g>
		<rect id="p_186_" x="120" y="56" width="8" height="8"/>
	</g>
	<g>
		<rect id="p_187_" x="120" y="64" width="8" height="8"/>
	</g>
	<g>
		<rect id="p_188_" x="120" y="104" width="8" height="8"/>
	</g>
	<g>
		<rect id="p_189_" x="120" y="120" width="8" height="8"/>
	</g>
	<g>
		<rect id="p_190_" x="120" y="136" width="8" height="8"/>
	</g>
	<g>
		<rect id="p_191_" x="120" y="160" width="8" height="8"/>
	</g>
	<g>
		<rect id="p_192_" x="120" y="168" width="8" height="8"/>
	</g>
	<g>
		<rect id="p_193_" x="120" y="176" width="8" height="8"/>
	</g>
	<g>
		<rect id="p_194_" x="128" y="8" width="8" height="8"/>
	</g>
	<g>
		<rect id="p_195_" x="128" y="24" width="8" height="8"/>
	</g>
	<g>
		<rect id="p_196_" x="128" y="32" width="8" height="8"/>
	</g>
	<g>
		<rect id="p_197_" x="128" y="48" width="8" height="8"/>
	</g>
	<g>
		<rect id="p_198_" x="128" y="80" width="8" height="8"/>
	</g>
	<g>
		<rect id="p_199_" x="128" y="88" width="8" height="8"/>
	</g>
	<g>
		<rect id="p_200_" x="128" y="104" width="8" height="8"/>
	</g>
	<g>
		<rect id="p_201_" x="128" y="128" width="8" height="8"/>
	</g>
	<g>
		<rect id="p_202_" x="128" y="136" width="8" height="8"/>
	</g>
	<g>
		<rect id="p_203_" x="128" y="144" width="8" height="8"/>
	</g>
	<g>
		<rect id="p_204_" x="128" y="152" width="8" height="8"/>
	</g>
	<g>
		<rect id="p_205_" x="128" y="160" width="8" height="8"/>
	</g>
	<g>
		<rect id="p_206_" x="128" y="168" width="8" height="8"/>
	</g>
	<g>
		<rect id="p_207_" x="128" y="176" width="8" height="8"/>
	</g>
	<g>
		<rect id="p_208_" x="128" y="192" width="8" height="8"/>
	</g>
	<g>
		<rect id="p_209_" x="136" y="72" width="8" height="8"/>
	</g>
	<g>
		<rect id="p_210_" x="136" y="88" width="8" height="8"/>
	</g>
	<g>
		<rect id="p_211_" x="136" y="120" width="8" height="8"/>
	</g>
	<g>
		<rect id="p_212_" x="136" y="128" width="8" height="8"/>
	</g>
	<g>
		<rect id="p_213_" x="136" y="160" width="8" height="8"/>
	</g>
	<g>
		<rect id="p_214_" x="136" y="192" width="8" height="8"/>
	</g>
	<g>
		<rect id="p_215_" x="144" width="8" height="8"/>
	</g>
	<g>
		<rect id="p_216_" x="144" y="8" width="8" height="8"/>
	</g>
	<g>
		<rect id="p_217_" x="144" y="16" width="8" height="8"/>
	</g>
	<g>
		<rect id="p_218_" x="144" y="24" width="8" height="8"/>
	</g>
	<g>
		<rect id="p_219_" x="144" y="32" width="8" height="8"/>
	</g>
	<g>
		<rect id="p_220_" x="144" y="40" width="8" height="8"/>
	</g>
	<g>
		<rect id="p_221_" x="144" y="48" width="8" height="8"/>
	</g>
	<g>
		<rect id="p_222_" x="144" y="80" width="8" height="8"/>
	</g>
	<g>
		<rect id="p_223_" x="144" y="96" width="8" height="8"/>
	</g>
	<g>
		<rect id="p_224_" x="144" y="120" width="8" height="8"/>
	</g>
	<g>
		<rect id="p_225_" x="144" y="128" width="8" height="8"/>
	</g>
	<g>
		<rect id="p_226_" x="144" y="144" width="8" height="8"/>
	</g>
	<g>
		<rect id="p_227_" x="144" y="160" width="8" height="8"/>
	</g>
	<g>
		<rect id="p_228_" x="144" y="168" width="8" height="8"/>
	</g>
	<g>
		<rect id="p_229_" x="144" y="176" width="8" height="8"/>
	</g>
	<g>
		<rect id="p_230_" x="144" y="192" width="8" height="8"/>
	</g>
	<g>
		<rect id="p_231_" x="152" width="8" height="8"/>
	</g>
	<g>
		<rect id="p_232_" x="152" y="48" width="8" height="8"/>
	</g>
	<g>
		<rect id="p_233_" x="152" y="64" width="8" height="8"/>
	</g>
	<g>
		<rect id="p_234_" x="152" y="80" width="8" height="8"/>
	</g>
	<g>
		<rect id="p_235_" x="152" y="112" width="8" height="8"/>
	</g>
	<g>
		<rect id="p_236_" x="152" y="120" width="8" height="8"/>
	</g>
	<g>
		<rect id="p_237_" x="152" y="128" width="8" height="8"/>
	</g>
	<g>
		<rect id="p_238_" x="152" y="160" width="8" height="8"/>
	</g>
	<g>
		<rect id="p_239_" x="152" y="168" width="8" height="8"/>
	</g>
	<g>
		<rect id="p_240_" x="152" y="184" width="8" height="8"/>
	</g>
	<g>
		<rect id="p_241_" x="160" width="8" height="8"/>
	</g>
	<g>
		<rect id="p_242_" x="160" y="16" width="8" height="8"/>
	</g>
	<g>
		<rect id="p_243_" x="160" y="24" width="8" height="8"/>
	</g>
	<g>
		<rect id="p_244_" x="160" y="32" width="8" height="8"/>
	</g>
	<g>
		<rect id="p_245_" x="160" y="48" width="8" height="8"/>
	</g>
	<g>
		<rect id="p_246_" x="160" y="64" width="8" height="8"/>
	</g>
	<g>
		<rect id="p_247_" x="160" y="72" width="8" height="8"/>
	</g>
	<g>
		<rect id="p_248_" x="160" y="96" width="8" height="8"/>
	</g>
	<g>
		<rect id="p_249_" x="160" y="112" width="8" height="8"/>
	</g>
	<g>
		<rect id="p_250_" x="160" y="128" width="8" height="8"/>
	</g>
	<g>
		<rect id="p_251_" x="160" y="136" width="8" height="8"/>
	</g>
	<g>
		<rect id="p_252_" x="160" y="144" width="8" height="8"/>
	</g>
	<g>
		<rect id="p_253_" x="160" y="152" width="8" height="8"/>
	</g>
	<g>
		<rect id="p_254_" x="160" y="160" width="8" height="8"/>
	</g>
	<g>
		<rect id="p_255_" x="160" y="168" width="8" height="8"/>
	</g>
	<g>
		<rect id="p_256_" x="160" y="176" width="8" height="8"/>
	</g>
	<g>
		<rect id="p_257_" x="160" y="184" width="8" height="8"/>
	</g>
	<g>
		<rect id="p_258_" x="168" width="8" height="8"/>
	</g>
	<g>
		<rect id="p_259_" x="168" y="16" width="8" height="8"/>
	</g>
	<g>
		<rect id="p_260_" x="168" y="24" width="8" height="8"/>
	</g>
	<g>
		<rect id="p_261_" x="168" y="32" width="8" height="8"/>
	</g>
	<g>
		<rect id="p_262_" x="168" y="48" width="8" height="8"/>
	</g>
	<g>
		<rect id="p_263_" x="168" y="64" width="8" height="8"/>
	</g>
	<g>
		<rect id="p_264_" x="168" y="72" width="8" height="8"/>
	</g>
	<g>
		<rect id="p_265_" x="168" y="96" width="8" height="8"/>
	</g>
	<g>
		<rect id="p_266_" x="168" y="104" width="8" height="8"/>
	</g>
	<g>
		<rect id="p_267_" x="168" y="136" width="8" height="8"/>
	</g>
	<g>
		<rect id="p_268_" x="168" y="144" width="8" height="8"/>
	</g>
	<g>
		<rect id="p_269_" x="168" y="168" width="8" height="8"/>
	</g>
	<g>
		<rect id="p_270_" x="168" y="192" width="8" height="8"/>
	</g>
	<g>
		<rect id="p_271_" x="176" width="8" height="8"/>
	</g>
	<g>
		<rect id="p_272_" x="176" y="16" width="8" height="8"/>
	</g>
	<g>
		<rect id="p_273_" x="176" y="24" width="8" height="8"/>
	</g>
	<g>
		<rect id="p_274_" x="176" y="32" width="8" height="8"/>
	</g>
	<g>
		<rect id="p_275_" x="176" y="48" width="8" height="8"/>
	</g>
	<g>
		<rect id="p_276_" x="176" y="80" width="8" height="8"/>
	</g>
	<g>
		<rect id="p_277_" x="176" y="112" width="8" height="8"/>
	</g>
	<g>
		<rect id="p_278_" x="176" y="128" width="8" height="8"/>
	</g>
	<g>
		<rect id="p_279_" x="176" y="152" width="8" height="8"/>
	</g>
	<g>
		<rect id="p_280_" x="176" y="176" width="8" height="8"/>
	</g>
	<g>
		<rect id="p_281_" x="184" width="8" height="8"/>
	</g>
	<g>
		<rect id="p_282_" x="184" y="48" width="8" height="8"/>
	</g>
	<g>
		<rect id="p_283_" x="184" y="64" width="8" height="8"/>
	</g>
	<g>
		<rect id="p_284_" x="184" y="72" width="8" height="8"/>
	</g>
	<g>
		<rect id="p_285_" x="184" y="80" width="8" height="8"/>
	</g>
	<g>
		<rect id="p_286_" x="184" y="144" width="8" height="8"/>
	</g>
	<g>
		<rect id="p_287_" x="184" y="152" width="8" height="8"/>
	</g>
	<g>
		<rect id="p_288_" x="184" y="160" width="8" height="8"/>
	</g>
	<g>
		<rect id="p_289_" x="184" y="168" width="8" height="8"/>
	</g>
	<g>
		<rect id="p_290_" x="184" y="192" width="8" height="8"/>
	</g>
	<g>
		<rect id="p_291_" x="192" width="8" height="8"/>
	</g>
	<g>
		<rect id="p_292_" x="192" y="8" width="8" height="8"/>
	</g>
	<g>
		<rect id="p_293_" x="192" y="16" width="8" height="8"/>
	</g>
	<g>
		<rect id="p_294_" x="192" y="24" width="8" height="8"/>
	</g>
	<g>
		<rect id="p_295_" x="192" y="32" width="8" height="8"/>
	</g>
	<g>
		<rect id="p_296_" x="192" y="40" width="8" height="8"/>
	</g>
	<g>
		<rect id="p_297_" x="192" y="48" width="8" height="8"/>
	</g>
	<g>
		<rect id="p_298_" x="192" y="64" width="8" height="8"/>
	</g>
	<g>
		<rect id="p_299_" x="192" y="72" width="8" height="8"/>
	</g>
	<g>
		<rect id="p_300_" x="192" y="80" width="8" height="8"/>
	</g>
	<g>
		<rect id="p_301_" x="192" y="104" width="8" height="8"/>
	</g>
	<g>
		<rect id="p_302_" x="192" y="112" width="8" height="8"/>
	</g>
	<g>
		<rect id="p_303_" x="192" y="120" width="8" height="8"/>
	</g>
	<g>
		<rect id="p_304_" x="192" y="128" width="8" height="8"/>
	</g>
	<g>
		<rect id="p_305_" x="192" y="136" width="8" height="8"/>
	</g>
	<g>
		<rect id="p_306_" x="192" y="144" width="8" height="8"/>
	</g>
	<g>
		<rect id="p_307_" x="192" y="176" width="8" height="8"/>
	</g>
	<g>
		<rect id="p_308_" x="192" y="192" width="8" height="8"/>
	</g>
</g>
</svg>
