<?xml version="1.0" encoding="UTF-8"?>
<svg width="32px" height="36px" viewBox="0 0 32 36" version="1.1" xmlns="http://www.w3.org/2000/svg" xmlns:xlink="http://www.w3.org/1999/xlink">
    <!-- Generator: Sketch 46.2 (44496) - http://www.bohemiancoding.com/sketch -->
    <title>Group 11</title>
    <desc>Created with Sketch.</desc>
    <defs>
        <path d="M13.9092166,23.3747962 L14.9928141,24.5435715 L14.9928141,24.5435715 C16.1697767,25.8130509 16.094777,27.7962841 14.8252976,28.9732467 C14.2457238,29.5105824 13.4845571,29.8091431 12.6942183,29.8091431 L3.78344524,29.8091431 L3.78344524,29.8091431 C2.05231294,29.8091431 0.648952932,28.4057831 0.648952932,26.6746508 C0.648952932,25.9026159 0.933874133,25.157738 1.44910734,24.5827835 L2.44466521,23.4718294 L2.44466521,23.4718294 C5.30355982,20.2815572 10.2073785,20.0129225 13.3976507,22.8718172 C13.5758391,23.0314969 13.7465436,23.1993361 13.9092166,23.3747962 Z" id="path-1"></path>
    </defs>
    <g id="Page-1" stroke="none" stroke-width="1" fill="none" fill-rule="evenodd">
        <g id="Billing_history" transform="translate(-34.000000, -491.000000)">
            <g id="Group-11" transform="translate(37.000000, 493.000000)">
                <path d="M18.2533992,7.99726214 L14.5408278,4.48372977" id="Line-4-Copy-2" stroke="#CAD0D4" stroke-width="2.205" stroke-linecap="square"></path>
                <path d="M18.3032227,11.953125 L12.2213416,12.9952567" id="Line-4-Copy" stroke="#CAD0D4" stroke-width="2.205" stroke-linecap="square"></path>
                <path d="M9.95693735,8.96118164 L11.6572453,4.97131348" id="Line-4-Copy-3" stroke="#CAD0D4" stroke-width="2.205" stroke-linecap="square"></path>
                <path d="M26.6673345,20.2825683 L26.7566944,20.3789524 L26.7566944,20.3789524 C27.933657,21.6484318 27.8586573,23.631665 26.5891778,24.8086276 C26.009604,25.3459633 25.2484373,25.644524 24.4580985,25.644524 L19.3988299,25.644524 L19.3988299,25.644524 C17.6676976,25.644524 16.2643375,24.241164 16.2643375,22.5100317 C16.2643375,21.7379968 16.5492587,20.9931189 17.064492,20.4181644 L17.1135417,20.3634293 L17.1135417,20.3634293 C19.4959539,17.7048691 23.5824694,17.4810069 26.2410296,19.8634191 C26.38952,19.9964855 26.5317737,20.1363515 26.6673345,20.2825683 Z" id="Rectangle-3-Copy" stroke="#CAD0D4" stroke-width="2.205"></path>
                <g id="Rectangle-3">
                    <path stroke="#FFFFFF" stroke-width="3.3075" d="M15.1219498,22.2504443 L16.2055474,23.4192196 C18.0034724,25.3584731 17.888903,28.3880549 15.9496495,30.1859799 C15.0642941,31.0068125 13.9015378,31.4628931 12.6942183,31.4628931 L3.78344524,31.4628931 C1.13897203,31.4628931 -1.00479707,29.319124 -1.00479707,26.6746508 C-1.00479707,25.4952923 -0.569552182,24.3574187 0.217516727,23.4791198 L1.2130746,22.3681657 C4.68150585,18.4977048 10.6308535,18.1717953 14.5013144,21.6402265 C14.7174939,21.8339512 14.9245938,22.0375748 15.1219498,22.2504443 Z"></path>
                    <use stroke="#CAD0D4" stroke-width="2.205" xlink:href="#path-1"></use>
                </g>
                <ellipse id="Oval-3" stroke="#CAD0D4" stroke-width="2.205" cx="8.38866397" cy="13.1785714" rx="3.00404858" ry="3"></ellipse>
                <ellipse id="Oval-3-Copy-2" stroke="#CAD0D4" stroke-width="2.205" cx="12.6983806" cy="2.46428571" rx="2.46761134" ry="2.46428571"></ellipse>
                <ellipse id="Oval-3-Copy-3" stroke="#CAD0D4" stroke-width="2.205" cx="21.8502024" cy="11.0357143" rx="3.00404858" ry="3"></ellipse>
            </g>
        </g>
    </g>
</svg>