<?xml version="1.0" encoding="UTF-8"?>
<svg width="33px" height="22px" viewBox="0 0 33 22" version="1.1" xmlns="http://www.w3.org/2000/svg" xmlns:xlink="http://www.w3.org/1999/xlink">
    <!-- Generator: Sketch 46.2 (44496) - http://www.bohemiancoding.com/sketch -->
    <title>Group 12</title>
    <desc>Created with Sketch.</desc>
    <defs></defs>
    <g id="Page-1" stroke="none" stroke-width="1" fill="none" fill-rule="evenodd">
        <g id="server_ISO" transform="translate(-34.000000, -601.000000)">
            <g id="Group-12" transform="translate(34.000000, 601.000000)">
                <path d="M6,18.9599146 L7.5,18.9599146 L7.5,20.1793103 C7.5,20.3602355 7.63817625,20.5 7.8,20.5 L31.2,20.5 C31.3618238,20.5 31.5,20.3602355 31.5,20.1793103 L31.5,6.75172414 C31.5,6.57079896 31.3618238,6.43103448 31.2,6.43103448 L28.8792114,6.43103448 L28.8792114,4.93103448 L31.2,4.93103448 C32.1941125,4.93103448 33,5.74618501 33,6.75172414 L33,20.1793103 C33,21.1848495 32.1941125,22 31.2,22 L7.8,22 C6.80588745,22 6,21.1848495 6,20.1793103 L6,18.9599146 Z M6,18.9599146 L7.5,18.9599146 L7.5,20.1793103 C7.5,20.3602355 7.63817625,20.5 7.8,20.5 L31.2,20.5 C31.3618238,20.5 31.5,20.3602355 31.5,20.1793103 L31.5,6.75172414 C31.5,6.57079896 31.3618238,6.43103448 31.2,6.43103448 L28.8792114,6.43103448 L28.8792114,4.93103448 L31.2,4.93103448 C32.1941125,4.93103448 33,5.74618501 33,6.75172414 L33,20.1793103 C33,21.1848495 32.1941125,22 31.2,22 L7.8,22 C6.80588745,22 6,21.1848495 6,20.1793103 L6,18.9599146 Z" id="Rectangle-Copy" fill="#CAD0D4" fill-rule="nonzero"></path>
                <path d="M1.8,1.5 C1.63431458,1.5 1.5,1.63431458 1.5,1.8 L1.5,15.2689655 C1.5,15.4346509 1.63431458,15.5689655 1.8,15.5689655 L25.2,15.5689655 C25.3656854,15.5689655 25.5,15.4346509 25.5,15.2689655 L25.5,1.8 C25.5,1.63431458 25.3656854,1.5 25.2,1.5 L1.8,1.5 Z M1.8,0 L25.2,0 C26.1941125,-1.82615513e-16 27,0.80588745 27,1.8 L27,15.2689655 C27,16.2630781 26.1941125,17.0689655 25.2,17.0689655 L1.8,17.0689655 C0.80588745,17.0689655 -9.88479349e-16,16.2630781 -1.11022302e-15,15.2689655 L-1.97215226e-31,1.8 C-1.21743675e-16,0.80588745 0.80588745,1.07079393e-15 1.8,0 Z" id="Rectangle" fill="#CAD0D4" fill-rule="nonzero"></path>
                <path d="M1.125,6.06896552 L25.5818321,6.06896552" id="Path-64-Copy" stroke="#CAD0D4" stroke-width="3"></path>
                <path d="M4.5,12.137931 L10.1426553,12.137931" id="Path-65" stroke="#CAD0D4" stroke-width="1.5" stroke-linecap="round"></path>
            </g>
        </g>
    </g>
</svg>