<?xml version="1.0" encoding="UTF-8"?>
<svg width="30px" height="30px" viewBox="0 0 30 30" version="1.1" xmlns="http://www.w3.org/2000/svg" xmlns:xlink="http://www.w3.org/1999/xlink">
    <!-- Generator: Sketch 46.2 (44496) - http://www.bohemiancoding.com/sketch -->
    <title>Group 2</title>
    <desc>Created with Sketch.</desc>
    <defs></defs>
    <g id="Page-1" stroke="none" stroke-width="1" fill="none" fill-rule="evenodd">
        <g id="Billing_history" transform="translate(-36.000000, -193.000000)" stroke="#CAD0D4" stroke-width="2">
            <g id="Group-2" transform="translate(37.000000, 194.000000)">
                <circle id="Oval" cx="14" cy="14" r="14"></circle>
                <path d="M15,1 C19.7501153,4.90830141 22.0827025,9.35335908 21.9977617,14.335173 C21.8984493,20.1598833 19.8244407,23.5450629 15,28" id="Path-62"></path>
                <path d="M7,1 C11.6210802,4.33862742 13.9541595,8.78093818 13.9992379,14.3269323 C14.0472435,20.2330626 11.8285023,23.542434 7,28" id="Path-62-Copy" transform="translate(10.500000, 14.500000) scale(-1, 1) translate(-10.500000, -14.500000) "></path>
                <path d="M2,7 C6.10093566,9.80243327 10.2592699,11.1323105 14.4750026,10.9896317 C18.6907354,10.8469529 22.5324012,9.51707564 26,7" id="Path-63"></path>
                <path d="M3,18 C6.36728605,20.1184648 10.1543998,21.1149563 14.3613412,20.9894746 C18.5682826,20.8639928 22.1145022,19.8675013 25,18" id="Path-63-Copy" transform="translate(14.000000, 19.500000) rotate(-180.000000) translate(-14.000000, -19.500000) "></path>
                <path d="M14,3.63797881e-12 L14,28" id="Path-61"></path>
            </g>
        </g>
    </g>
</svg>