<?xml version="1.0" encoding="UTF-8"?>
<svg width="30px" height="34px" viewBox="0 0 30 34" version="1.1" xmlns="http://www.w3.org/2000/svg" xmlns:xlink="http://www.w3.org/1999/xlink">
    <!-- Generator: Sketch 46.2 (44496) - http://www.bohemiancoding.com/sketch -->
    <title>Group 5</title>
    <desc>Created with Sketch.</desc>
    <defs></defs>
    <g id="Page-1" stroke="none" stroke-width="1" fill="none" fill-rule="evenodd">
        <g id="Billing_history" transform="translate(-36.000000, -290.000000)" stroke="#CAD0D4" stroke-width="2">
            <g id="Group-5" transform="translate(37.000000, 291.000000)">
                <g id="Group-17" transform="translate(10.080000, 8.827586)">
                    <g id="Group-6">
                        <ellipse id="Oval-17-Copy-8" cx="3.5" cy="3.38421975" rx="3.5" ry="3.38421975"></ellipse>
                        <path d="M-7.28306304e-14,10.3842198 C-7.28306304e-14,12.2532727 1.56700338,13.7684395 3.5,13.7684395 L3.5,13.7684395 C5.43299662,13.7684395 7,12.2532727 7,10.3842198" id="Oval-17-Copy-8" stroke-linecap="round"></path>
                    </g>
                </g>
                <path d="M0.0282435478,3.22342705 C5.47828918,3.16598357 10.1485267,2.09150788 14.0389561,0 C14.0389561,0 18.9651492,3.22342705 28,3.22342705 C28,3.22342705 28,5.76065375 28,9.26064319 C28,13.9550943 27.5332855,17.7647274 24.2565785,23.1396014 C22.0721072,26.7228506 18.657955,29.6763168 14.0141218,32 C10.1629913,30.1842885 6.77640897,27.2308223 3.85437483,23.1396014 C1.10268601,19.2868856 0.201798547,15.1803356 0.0282435478,9.26064319 C-0.00941451592,7.97618492 -0.00941451592,5.96377954 0.0282435478,3.22342705 Z" id="Path-40" stroke-linecap="round" stroke-linejoin="round"></path>
            </g>
        </g>
    </g>
</svg>