<?xml version="1.0" encoding="UTF-8"?>
<svg width="32px" height="29px" viewBox="0 0 32 29" version="1.1" xmlns="http://www.w3.org/2000/svg" xmlns:xlink="http://www.w3.org/1999/xlink">
    <!-- Generator: Sketch 46.2 (44496) - http://www.bohemiancoding.com/sketch -->
    <title>Group 4</title>
    <desc>Created with Sketch.</desc>
    <defs></defs>
    <g id="Page-1" stroke="none" stroke-width="1" fill="none" fill-rule="evenodd">
        <g id="Billing_history" transform="translate(-35.000000, -96.000000)">
            <g id="Group-4" transform="translate(37.000000, 98.000000)">
                <path d="M2.5,-0.927 L25.5,-0.927 C27.3926798,-0.927 28.927,0.607320162 28.927,2.5 C28.927,4.39267984 27.3926798,5.927 25.5,5.927 L2.5,5.927 C0.607320162,5.927 -0.927,4.39267984 -0.927,2.5 C-0.927,0.607320162 0.607320162,-0.927 2.5,-0.927 Z" id="Rectangle-16" stroke="#2980B9" stroke-width="1.854"></path>
                <rect id="Rectangle-16" stroke="#2980B9" stroke-width="1.854" x="-0.927" y="9.073" width="29.854" height="6.854" rx="3.427"></rect>
                <rect id="Rectangle-16" stroke="#2980B9" stroke-width="1.854" x="-0.927" y="19.073" width="29.854" height="6.854" rx="3.427"></rect>
                <circle id="Oval-4" fill="#2980B9" cx="20.25" cy="2.25" r="1.25"></circle>
                <circle id="Oval-4" fill="#2980B9" cx="24.25" cy="2.25" r="1.25"></circle>
                <circle id="Oval-4" fill="#2980B9" cx="20.25" cy="12.25" r="1.25"></circle>
                <circle id="Oval-4" fill="#2980B9" cx="24.25" cy="12.25" r="1.25"></circle>
                <circle id="Oval-4" fill="#2980B9" cx="20.25" cy="22.25" r="1.25"></circle>
                <circle id="Oval-4" fill="#2980B9" cx="24.25" cy="22.25" r="1.25"></circle>
            </g>
        </g>
    </g>
</svg>