<?xml version="1.0" encoding="UTF-8"?>
<svg width="30px" height="30px" viewBox="0 0 30 30" version="1.1" xmlns="http://www.w3.org/2000/svg" xmlns:xlink="http://www.w3.org/1999/xlink">
    <!-- Generator: Sketch 46.2 (44496) - http://www.bohemiancoding.com/sketch -->
    <title>Group 36 Copy</title>
    <desc>Created with Sketch.</desc>
    <defs></defs>
    <g id="Page-1" stroke="none" stroke-width="1" fill="none" fill-rule="evenodd">
        <g id="Billing_history" transform="translate(-36.000000, -393.000000)" stroke="#2980B9" stroke-width="2">
            <g id="Group-36-Copy" transform="translate(37.000000, 394.000000)">
                <path d="M8.1240659,26.9447393 C11.2822943,27.9666886 11.3116135,28 14,28 C21.7319865,28 28,21.7319865 28,14 C28,9.90724675 26.2353869,6.28148353 23.3504232,3.704558 M19.738834,1.09452388 C17.4995569,0.169737618 16.5422006,-3.18323146e-12 14,-3.18323146e-12 C6.2680135,-3.18323146e-12 0,6.2680135 0,14 C0,18.3321737 1.53849438,21.9173254 4.62891077,24.485347" id="Oval-21-Copy" stroke-linecap="round" stroke-linejoin="round" transform="translate(14.000000, 14.000000) rotate(-360.000000) translate(-14.000000, -14.000000) "></path>
                <path d="M23.7735849,24.8301887 L18.0351568,18.6264826 M9.72800842,9.64578167 L4.22641509,3.69811321" id="Path-42-Copy"></path>
                <path d="M23.2846149,24.3781139 C21.0067248,21.7957925 19.3806657,19.9529767 18.4064379,18.8496664 M10.0159612,9.3781115 C6.62378957,5.58232325 4.86305508,3.67382599 4.73375774,3.65261974" id="Path-42-Copy-2" stroke-linecap="round" transform="translate(14.009186, 14.015367) scale(-1, 1) translate(-14.009186, -14.015367) "></path>
                <circle id="Oval-21" cx="13.7358491" cy="14.2641509" r="5.81132075"></circle>
            </g>
        </g>
    </g>
</svg>